<mxfile host="app.diagrams.net" modified="2024-03-05T08:17:26.689Z" agent="Mozilla/5.0 (Windows NT 10.0; Win64; x64) AppleWebKit/537.36 (KHTML, like Gecko) Chrome/122.0.0.0 Safari/537.36" version="24.0.1" etag="cwQxcGuGEFeSTX4CpD4_" type="github">
  <diagram name="Страница — 1" id="bcS_Ys8aml6ihL9f97_2">
    <mxGraphModel>
      <root>
        <mxCell id="0" />
        <mxCell id="1" parent="0" />
      </root>
    </mxGraphModel>
  </diagram>
</mxfile>
